<?xml version="1.0" encoding="UTF-8"?>
<svg id="Layer_1" data-name="Layer 1" xmlns="http://www.w3.org/2000/svg" viewBox="0 0 891.42 806.59">
  <g>
    <path d="M338.78,418.89c4.26,4.19,10.28,7.04,16.68,7.64,3.19,.28,6.41,.05,9.46-.7,3.04-.79,5.88-2.06,8.41-3.69,5.04-3.3,8.71-8.06,10.61-13.09,1.96-5.04,2.14-10.23,1.21-14.7-.89-4.51-3.01-8.25-5.4-11.04-4.92-5.63-10.7-7.38-14.32-7.73-.92-.13-1.74-.13-2.44-.12-.7-.02-1.29,.04-1.76,.11-.93,.12-1.42,.19-1.42,.19,0,0,.47,.13,1.36,.39,.44,.11,.98,.28,1.6,.54,.62,.23,1.32,.5,2.07,.91,3,1.43,6.99,4.52,9.37,9.51,2.43,4.85,2.69,11.8-.64,17.43-1.64,2.8-4.13,5.2-7.13,6.79-3.03,1.52-6.52,2.27-10.05,1.81-7.07-.75-12.83-6.03-14.67-12.1-.93-3.01-1.1-6.21-.55-9.1,.57-2.89,1.77-5.5,3.31-7.64,3.11-4.33,7.36-6.52,10.37-7.48,1.52-.49,2.78-.76,3.64-.85,.87-.12,1.32-.19,1.32-.19,0,0-.46-.13-1.34-.39-.89-.27-2.24-.54-4.05-.63-3.54-.19-9.39,.54-15.07,5.19-2.78,2.3-5.41,5.58-7.12,9.78-1.62,4.18-2.4,9.24-1.4,14.5,.95,5.23,3.62,10.56,7.96,14.7Z"/>
    <path d="M542.65,423.45c4.26,4.19,10.28,7.04,16.68,7.64,3.19,.28,6.41,.05,9.46-.7,3.04-.79,5.88-2.06,8.41-3.69,5.04-3.3,8.71-8.06,10.61-13.09,1.96-5.04,2.14-10.23,1.21-14.7-.89-4.51-3.01-8.25-5.4-11.04-4.92-5.63-10.7-7.38-14.32-7.73-.92-.13-1.74-.13-2.44-.12-.7-.02-1.29,.04-1.76,.11-.93,.12-1.42,.19-1.42,.19,0,0,.47,.13,1.36,.39,.44,.11,.98,.28,1.6,.54,.62,.23,1.32,.5,2.07,.91,3,1.43,6.99,4.52,9.37,9.51,2.43,4.85,2.69,11.8-.64,17.43-1.64,2.8-4.13,5.2-7.13,6.79-3.03,1.52-6.52,2.27-10.05,1.81-7.07-.75-12.83-6.03-14.67-12.1-.93-3.01-1.1-6.21-.55-9.1,.57-2.89,1.77-5.5,3.31-7.64,3.11-4.33,7.36-6.52,10.37-7.48,1.52-.49,2.78-.76,3.64-.85,.87-.12,1.32-.19,1.32-.19,0,0-.46-.13-1.34-.39-.89-.27-2.24-.54-4.05-.63-3.54-.19-9.39,.54-15.07,5.19-2.78,2.3-5.41,5.58-7.12,9.78-1.62,4.18-2.4,9.24-1.4,14.5,.95,5.23,3.62,10.56,7.96,14.7Z"/>
    <path d="M423.18,422.98c1.34-.36,2.9-1.09,4.36-2.33,1.46-1.23,2.79-3.02,3.51-5.21,.17-.54,.3-1.09,.39-1.63,1.62,1.13,3.98,2.61,7.08,4.08,6.36,3.03,15.96,5.91,26.69,5.78,10.73-.09,20.01-3.06,26.08-6.09,3.05-1.52,5.36-3,6.88-4.11,.18-.12,.3-.22,.46-.34,.26,.75,.56,1.5,.98,2.21,1.2,2.05,3.02,3.65,4.98,4.45,1.98,.83,3.84,.8,5.23,.64,1.41-.17,2.46-.49,3.17-.7,.71-.23,1.1-.36,1.1-.36,0,0-.43-.09-1.18-.24-.76-.15-1.86-.33-3.12-.65-1.26-.32-2.65-.81-3.79-1.67-1.17-.85-2.21-2.06-3.05-3.53-1.72-2.9-2.16-6.35-2.23-9.04-.04-1.34,0-2.47,.03-3.26l.05-1.25s-.25,.37-.63,1.06c-.38,.7-.91,1.73-1.37,3.1-.47,1.37-.87,3.1-.87,5.1,0,1.08,.15,2.26,.48,3.44-.22,.08-.46,.16-.72,.26-1.78,.63-4.39,1.43-7.6,2.21-6.43,1.57-15.33,2.86-25.18,2.9-9.85,.09-18.89-1.16-25.46-2.7-3.28-.77-5.94-1.59-7.77-2.23-.05-.02-.1-.03-.15-.05,.1-1.3,0-2.57-.28-3.7-.48-1.88-1.32-3.41-2.22-4.5-.9-1.1-1.78-1.79-2.43-2.19-.65-.4-1.03-.56-1.03-.56,0,0,.22,.34,.57,.97,.36,.61,.79,1.54,1.16,2.69,.74,2.29,1.08,5.64,0,8.78-1.05,3.15-3.21,5.59-5.08,6.96-.93,.7-1.78,1.18-2.39,1.48-.62,.29-.97,.45-.97,.45,0,0,.39,.09,1.14,.14,.74,.05,1.84,0,3.19-.36Z"/>
    <path d="M474.39,429.66c-1.59,.63-3.76,1.14-6.18,1.29-1.21,.06-2.38,.04-3.46-.04-1.07-.13-2.07-.27-2.9-.52-.43-.09-.79-.24-1.13-.35-.35-.1-.63-.22-.86-.33-.48-.2-.76-.31-.76-.31,0,0,.19,.22,.54,.61,.17,.2,.4,.43,.69,.66,.29,.24,.61,.53,1.02,.77,.78,.56,1.82,1.02,3.03,1.4,1.21,.33,2.6,.52,4.04,.43,2.91-.18,5.29-1.47,6.65-2.67,.69-.61,1.17-1.15,1.45-1.57l.44-.63s-.25,.14-.7,.38c-.43,.25-1.09,.56-1.87,.87Z"/>
    <path d="M575.45,426.13c.66-.5,1.33-1.23,1.98-2.11,.61-.9,1.16-1.99,1.51-3.19,.69-2.43,.37-4.75-.18-6.23-.27-.74-.56-1.31-.8-1.67l-.37-.56,.03,.7c.04,.43,.03,1.07,0,1.8-.06,1.49-.37,3.38-.95,5.38-.58,2-1.32,3.8-2.09,5.1-.37,.65-.72,1.19-1,1.55-.26,.37-.42,.58-.42,.58l.64-.29c.42-.19,.99-.53,1.63-1.04Z"/>
    <path d="M266.31,478.55s-.19,.27-.52,.74c-.33,.45-.8,1.08-1.41,1.67-.61,.6-1.35,1.08-2.09,1.32-.37,.13-.72,.18-1.02,.19-.31,0-.49-.04-.75-.1-.25-.06-.47-.14-.64-.21-.17-.07-.34-.12-.53-.37-.37-.48-.53-1.38-.44-2.21,.08-.84,.32-1.63,.48-2.17l.25-.87s-.28,.1-.78,.36c-.49,.27-1.21,.67-1.98,1.5-.74,.83-1.57,2.2-1.42,4.1,.07,.94,.51,2.04,1.27,2.84,.75,.81,1.73,1.35,2.79,1.58,1.05,.25,2.21,.13,3.1-.21,.91-.34,1.65-.86,2.21-1.44,1.14-1.16,1.6-2.53,1.74-3.55,.15-1.05,.04-1.85-.06-2.38-.11-.53-.21-.81-.21-.81Z"/>
    <path d="M325.36,499.03c-.83,.11-1.99,.61-3.09,1.43-1.13,.82-2.17,1.89-3.28,2.79-1.13,.93-2.37,1.84-3.67,2.52-.65,.35-1.29,.61-1.92,.81-.63,.2-1.17,.31-1.78,.35-1.19,.09-2.32-.12-3.21-.45-.9-.33-1.54-.82-1.96-1.21-.42-.39-.6-.69-.61-.68,.02,0-.1,.36-.01,1.05,.08,.68,.4,1.76,1.32,2.8,.9,1.05,2.38,2.03,4.3,2.43,.94,.2,2.07,.22,3.09,.04,1.04-.17,2.09-.54,3.04-1.05,1.93-1.03,3.32-2.51,4.31-3.93,1.02-1.47,1.53-2.81,2.07-3.85,.52-1.05,1.09-1.88,1.67-2.37,.28-.25,.54-.43,.72-.54l.29-.17-.33-.03c-.22-.01-.54-.02-.95,.05Z"/>
    <path d="M384.1,481.48s-.09,.32-.29,.8c-.2,.48-.56,1.09-1.05,1.64-.97,1.15-2.54,1.91-3.59,2.13-.55,.13-1.19,.25-1.95,.21-.74-.04-1.55-.19-2.24-.49-.69-.28-1.3-.68-1.69-1.03-.4-.35-.62-.61-.62-.61,.05-.04-.41,1.25,.51,3.14,.45,.92,1.28,1.9,2.5,2.63,1.21,.71,2.93,1.13,4.69,.67,1.76-.46,3.03-1.63,3.74-2.8,.73-1.18,.97-2.41,.95-3.39-.02-.99-.28-1.75-.52-2.21-.25-.47-.43-.68-.43-.68Z"/>
    <path d="M475.81,497.97c-.8-.28-2.14-.46-3.75-.08-1.59,.34-3.46,1.28-5.1,2.52-1.67,1.22-3.21,2.64-4.77,3.65-2.94,1.97-6.75,2.35-9.59,1.82-1.42-.26-2.62-.69-3.42-1.09-.42-.18-.71-.38-.94-.49l-.34-.18,.19,.32c.13,.2,.3,.54,.6,.9,.55,.77,1.52,1.78,2.98,2.7,1.46,.9,3.46,1.67,5.8,1.82,2.31,.15,5.08-.38,7.39-1.96,2.24-1.53,3.65-3.32,4.9-4.71,1.22-1.43,2.28-2.46,3.35-3.22,1.05-.74,2.01-1.12,2.71-1.27,.35-.08,.64-.12,.83-.13l.3-.03-.27-.17c-.18-.12-.47-.26-.87-.4Z"/>
    <path d="M551,480.7c-.22-.18-.4-.29-.53-.36l-.19-.1,.04,.24c.03,.15,.06,.37,.07,.63,.03,.53-.07,1.25-.36,1.91-.29,.67-.77,1.3-1.3,1.68-.51,.36-1.08,.6-1.74,.85-.67,.24-1.35,.47-2.12,.55-.78,.09-1.65,.05-2.44-.09-.79-.14-1.5-.36-2-.54l-.81-.31s.06,.29,.25,.78c.19,.49,.54,1.2,1.17,1.96,.64,.75,1.6,1.57,2.95,2.06,1.36,.5,3.09,.57,4.7-.05,1.62-.61,2.94-1.89,3.53-3.37,.58-1.46,.45-2.82,.12-3.82-.35-1.01-.92-1.66-1.36-2.01Z"/>
    <path d="M638.88,490.56c-2.75,1.06-4.79,2.99-5.97,4.6-1.2,1.61-1.65,2.87-1.65,2.87,0,0,1.17-.34,2.91-.9,1.74-.57,4.04-1.3,6.46-2.23,2.42-.93,4.55-1.9,6.16-2.64,1.6-.74,2.62-1.27,2.62-1.27,0,0-1.15-.63-3.09-1.02-1.92-.39-4.69-.46-7.44,.6Z"/>
    <path d="M611.81,474.8c-.3-.36-.47-.55-.47-.55,0,0,.01,.28,.04,.77,.03,.49,.1,1.19,.12,2,.02,.8-.04,1.72-.34,2.46-.29,.78-.82,1.4-1.3,1.6-.44,.23-1.24,.24-1.96-.07-.7-.26-1.32-.88-1.76-1.53-.44-.65-.72-1.32-.89-1.79l-.26-.77s-.11,.26-.23,.77c-.12,.5-.24,1.27-.11,2.26,.13,.96,.57,2.26,1.76,3.24,.58,.47,1.29,.85,2.13,1.02,.83,.17,1.83,.11,2.73-.34,.89-.44,1.53-1.17,1.91-1.9,.38-.73,.55-1.48,.59-2.17,.07-1.44-.4-2.51-.81-3.3-.43-.79-.86-1.32-1.15-1.69Z"/>
    <path d="M229.2,497.17c-.69,.17-1.48,.33-2.24,.36-.72,.03-1.42-.12-2.04-.37-.61-.28-.95-.5-1.24-1-.29-.49-.32-1.28-.24-1.97,.07-.7,.21-1.32,.3-1.75l.15-.69s-.2,.13-.54,.41c-.34,.28-.82,.7-1.32,1.38-.47,.67-1.06,1.68-.93,3.12,.07,.69,.35,1.45,.84,2.07,.49,.62,1.16,1.07,1.85,1.35,1.39,.55,2.87,.43,3.95-.03,1.07-.44,1.81-1.06,2.35-1.59,.54-.54,.89-1.01,1.13-1.34l.36-.52s-.25,.04-.67,.14c-.41,.11-1,.26-1.71,.44Z"/>
    <path d="M711.64,464.04c-2.12-1.64-4.33-3.11-6.57-4.44,4.23-.74,8.01-3.05,10.58-6.57,3-4.1,3.96-9.27,2.63-14.19-6.27-23.2-22.86-67.93-63.58-106.85-50.48-48.25-120.96-71.97-209.51-70.48-2.76,0-53.03,.42-109.11,24.01-33.27,14-61.58,33.29-84.12,57.35-28.2,30.1-47.36,67.7-56.95,111.76-.81,3.72,.1,7.54,2.48,10.49,1.31,1.61,2.97,2.83,4.82,3.61-10.5,8.49-13.5,18.74-14.77,27.48-1.53,10.55,2.24,21.36,9.38,28.12-1.5,5.67-1.28,11.16,.75,15.91,2.25,5.28,6.49,9.22,11.62,10.82,1.15,.36,2.35,.65,3.58,.92-.79,1.62-2.88,3.39-6.01,5.04l-1.23,.64c-4.51,2.34-10.12,5.26-12.71,11.14-1.7,3.86-1.64,8.3,.16,12.49,2.18,5.07,6.79,9.39,12.03,11.28,4.08,1.47,8.25,1.78,12.26,1.55-.98,1.67-1.87,3.43-2.6,5.28-2.56,6.47-2.67,12.99-.31,18.39,2.42,5.53,7.49,9.7,13.49,11.45-1.59,9.48-3.26,28.6,6.16,40.78,11.38,14.72,53.75,17.88,80.32,17.88,4.68,0,8.87-.1,12.32-.25,4.03,2.77,8.96,4.39,14,4.39,1.12,0,2.25-.08,3.38-.25,.16-.02,.31-.06,.46-.09,1.45,17.39,4.86,56.45,7.86,76.96-9.95,2.96-30.86,11.18-30.81,28.07,0,1.57,.6,4.49,4.56,6.45,4.27,2.12,14.25,3.41,25.38,3.41,15.14,0,32.4-2.39,40.26-8.33,5.49-4.15,5.51-9.03,5.04-11.57-2.67-14.32-7.31-59.35-7.21-97.46,3.35,.03,6.8,.04,10.34,.04,36.66,0,82.49-1.56,123.91-3.74-.06,39.65-4.59,85.68-7.22,100.5-.47,2.67-.4,7.8,5.4,12.13,8.05,6.01,24.99,8.43,39.88,8.43,11.04,0,20.96-1.33,25.3-3.49,4.06-2.03,4.67-5,4.67-6.6,.05-17.4-21.15-26.15-30.86-29.24,3.21-22.82,6.89-68.21,8.16-84.47,27.26-1.87,51.52-3.97,71.17-6.17,44.49-4.97,49.24-8.7,51.26-10.29,13.77-10.8,11.22-37.51,8.82-51.22,5.52,.22,10.94-1.44,15.37-6.33,3.96-4.37,5.35-9.81,4.03-15.75-1.97-8.85-9.52-16.95-15.07-21.54,.87-1.66,1.45-3.49,1.67-5.51,1.14-10.64-5-14.81-9.06-17.57-1.92-1.31-3.2-2.23-4-3.38,.22-.07,.45-.13,.67-.2,11.33-3.69,13.21-10.69,13.69-17.53,2.73-.68,5.32-1.71,7.7-3.13,10.04-5.99,15.77-18.99,13.93-31.61-1.55-10.69-7.87-20.82-17.81-28.52Zm-164.55-179.98c.02,.29,.05,.58,.06,.88,.02,.42,.02,.86,0,1.3-.01,.45-.02,.9-.09,1.28-.1,.79-.41,1.55-.66,1.7-.11,.07-.15,.06-.21,.05-.07,0-.25,0-.48-.06-.82-.1-2.61-2.04-3.94-3.37-1.38-1.41-2.6-2.78-3.62-3.97-.06-.08-.12-.14-.18-.22,3.09,.76,6.13,1.57,9.11,2.41Zm-60.57-10.7c0,.61-.02,1.27-.06,1.99-.1,1.56-.32,3.37-.75,5.26-.11,.46-.23,.97-.36,1.42-.13,.42-.28,.81-.44,1.08-.14,.24-.26,.33-.31,.34h0c0-.06-.03-.02-.09-.04-.13-.02-.32-.08-.53-.23-.23-.16-.49-.42-.77-.77-.57-.73-1.16-1.64-1.65-2.46-1-1.68-1.78-3.35-2.34-4.84-.33-.86-.58-1.65-.78-2.35,2.72,.17,5.42,.37,8.08,.59Zm-1.88,10.22h0s.01,.02,0,.01h0Zm-.05-.14h0Zm-69.13-6.07c.27-1.06,.49-1.99,.67-2.8,2.33-.33,4.56-.62,6.66-.86-.02,.05-.04,.09-.06,.14-.37,.94-.76,2.39-1.18,4.12-.43,1.7-.94,3.72-1.95,5.33-.49,.79-1.13,1.45-1.85,1.93-.7,.47-1.51,.69-2.07,.62-.63-.05-1.34-.42-1.64-.8-.16-.2-.26-.33-.33-.62-.06-.28-.05-.68,.04-1.13,.18-.9,.61-2.04,.9-3.05,.31-1.02,.58-1.98,.81-2.87Zm-68.74,18.63c.03-.72,.1-1.4,.19-2.04,.08-.57,.16-1.1,.26-1.58,1.49-.58,2.97-1.14,4.45-1.69-.19,.42-.4,.88-.63,1.38-.52,1.16-1.14,2.53-1.83,4.05-.34,.75-.67,1.57-.99,2.07-.34,.54-.61,.69-.78,.76-.02,0-.03,.01-.04,.01,0,0,0,0,0,.07h0c-.21-.11-.44-.39-.56-.99-.12-.57-.09-1.33-.06-2.05Zm-133.72,132.89h.13s6.68,.19,10.42-1.75c-2.7-1.6-7.07-2.11-9.14-2.27,14.37-40.31,38.14-73.21,71.12-98.39,.18,.26,.34,.52,.53,.77,0,0,.74,1.01,2.02,1.94,1.26,.95,3.09,1.72,4.69,1.53-.49-1.53-1.41-2.92-2.13-4.04-.73-1.11-1.32-1.91-1.32-1.91-.18-.23-.34-.48-.5-.73,2.06-1.51,4.15-3,6.27-4.46,.72,.24,1.9,.42,3.2-.25,.03-.66-.1-1.22-.29-1.69,12.76-8.44,26.7-15.88,41.85-22.28,1.57-.66,3.13-1.3,4.69-1.93-.31,.52-.62,1.09-.9,1.73-.33,.78-.68,1.65-.81,2.85-.14,1.15,.1,2.8,1.21,4.07,.54,.64,1.36,1.23,2.38,1.46,1.02,.24,2.05,.06,2.85-.3,.82-.36,1.46-.88,1.97-1.5,.49-.6,.81-1.21,1.03-1.79,.45-1.17,.56-2.05,.72-2.93,.28-1.75,.34-3.34,.31-4.67-.02-.86-.09-1.6-.16-2.22,23.11-8.39,44.74-12.9,61.23-15.32-.33,.49-.67,1.01-1.05,1.59-.49,.77-1.02,1.61-1.59,2.52-.54,.93-1.17,1.79-1.76,3.2-.28,.69-.52,1.55-.51,2.53,0,.98,.33,2.1,.9,2.96,1.17,1.74,3.02,2.75,5.1,2.9,2.16,.1,3.94-.8,5.21-1.91,1.27-1.11,2.11-2.52,2.59-3.86,.93-2.7,.76-5,.63-6.78-.18-1.73-.33-3.12-.43-4.09,0-.1-.01-.17-.02-.26,13.35-1.55,21.61-1.6,21.82-1.6h.09c11.04-.19,21.61,.06,31.77,.66-.12,.79-.21,1.71-.2,2.79,0,1.76,.28,3.88,1.06,6.11,.41,1.14,.85,2.21,1.6,3.43,.39,.61,.9,1.28,1.63,1.86,.76,.6,1.7,1.05,2.81,1.18,1.09,.16,2.45-.18,3.37-.92,.94-.73,1.41-1.64,1.71-2.4,.29-.78,.41-1.49,.48-2.14,.06-.62,.08-1.2,.09-1.78,.01-2.31-.39-4.33-.9-5.94-.16-.51-.33-.96-.5-1.38,16.99,1.5,32.72,4.08,47.26,7.53,.16,.59,.35,1.24,.6,1.95,.56,1.57,1.37,3.4,2.56,5.27,.59,.94,1.25,1.87,2.05,2.83,.82,.95,2,2.18,3.94,2.68,.92,.23,1.98,.25,3.02-.1,1.06-.35,1.94-1.12,2.46-1.95,1.02-1.7,.97-3.18,.88-4.43-.11-.82-.29-1.55-.49-2.24,32.67,9.67,58.8,23.92,79.68,40.12-.47,1.26-1.03,3.34-.51,5.18,1.51-.52,2.73-1.75,3.54-2.79,2.85,2.3,5.61,4.62,8.26,6.98l-.58,.63s-4.64,5.09-5.69,9.28c4.08-1.43,8.72-6.52,8.72-6.52l.59-.65c25.04,23.1,40.92,48.59,50.82,69.78l-2.42,1.83s-6.19,4.68-8.38,8.9c4.66-.95,10.85-5.64,10.85-5.64l1.69-1.28c5.06,11.37,8.37,21.31,10.46,28.7-.04,1.2,.11,2.41,.03,3.61-.12,1.88-.88,3.66-2.04,5.14-.91,.59-1.97,.95-3.09,1-6.44,.29-12.99,.57-19.62,.85-.06-.02-.12-.04-.17-.05l-.02,.06c-171.5,7.08-401.03,8.65-466.23,8.97-.62-.33-1.31-.56-1.99-.76-2.19-.64-4.43-1.27-6.37-2.47-.78-.48-1.5-1.07-2.12-1.74,1.99-8.71,4.33-17.15,7.07-25.28Zm-.57,112.1c-2.15-.67-4.04-2.5-5.06-4.9-.37-.88-.69-1.97-.83-3.28,3.19,1.41,6.48,2.59,9.85,3.47,0,0,1.07,.32,2.87,.67,1.79,.39,4.31,.79,7.15,1.02,2.84,.24,6,.26,9.04-.03,3.04-.27,5.94-.84,8.28-1.54-2.45,.03-5.35,.08-8.32-.03-2.97-.1-6.02-.37-8.74-.77-2.72-.38-5.12-.86-6.83-1.27-1.72-.38-2.75-.69-2.75-.69-2.75-.72-5.44-1.66-8.07-2.75,9.36,2.38,20.54,.41,31.82-5.83,1.56-.86,3.11-1.78,4.6-2.67,5.7-3.38,11.08-6.57,16.65-6.64,6.2-.07,12.34,3.76,18.78,7.82,7.91,4.99,16.88,10.64,27.39,8.86,6.96-1.18,12.48-5.4,17.35-9.13,1.08-.82,2.14-1.63,3.19-2.4,0,2.49,.04,5.12,.09,7.61-6.14,2.56-12.47,4.65-18.95,6.15,0,0-1.69,.44-4.51,1-2.8,.6-6.73,1.27-11.17,1.82-4.44,.55-9.39,.93-14.21,1.03-4.82,.12-9.51-.01-13.43-.14,3.84,.81,8.53,1.46,13.41,1.72,4.88,.29,9.94,.16,14.48-.23,4.54-.38,8.57-.99,11.45-1.56,2.88-.53,4.61-.98,4.61-.98,6.28-1.46,12.43-3.47,18.4-5.9,.05,1.59,.1,3.07,.15,4.32-15,11.15-43.25,10.36-63.99,9.78l-4-.11c-8.95-.23-18-.8-26.88-1.69-1.85-.19-3.8-.33-5.79-.48-5.67-.43-11.54-.88-16.02-2.27Zm107.65,112.13l-.28,1.01c-1.95,7-4.17,14.93-1.44,22.8,.05,.14,.11,.28,.17,.42-29.7,.46-68.21-3.61-76.08-13.79-5.95-7.7-5.72-21.16-4.47-30.27,3.79-3.82,8.54-5.75,13.61-5.65,3.79,3.81,8.61,6.63,14.04,8.05,5.42,1.42,12.34,2.45,19.65-1.06,2.92,2.41,5.77,3.55,8.49,4.5,3.42,1.19,7.05,1.78,10.69,1.78,4.22,0,8.43-.8,12.32-2.38,1.04-.42,2.47-1.06,4.08-1.9,.93,1.11,1.68,2.32,2.25,3.61-.79,4.15-1.79,8.44-3.02,12.87Zm-7.29-24.34c-4.9,2-10.58,2.15-15.58,.4-2.87-1-4.78-1.8-7.12-4.54l-3.11-3.65-3.92,2.76c-4.19,2.95-8.33,3.44-14.77,1.76-5.77-1.51-10.5-5.35-12.96-10.53l-3.31-6.96-5.28,5.62c-3.5,3.73-8.16,5.95-12.47,5.95h-.03c-4.34,0-8.6-2.55-10.12-6.04-1.21-2.76-1.04-6.52,.45-10.3,1.56-3.95,4.34-7.68,7.03-11.3l-.14-.11,22.73-4.63c5.69-1.16,11.91-1.95,14.92,1.01,2.01,1.98,2.54,5.47,3.15,9.53,.65,4.29,1.38,9.15,4.23,13.35,3.59,5.29,10.04,8.35,16.4,7.78,6.37-.56,12.18-4.69,14.79-10.53,1.65-3.69,1.88-7.5,2.07-10.86,.05-.89,.1-1.78,.18-2.65,.31-3.36,1.22-5.68,2.56-6.53,1.41-.89,4.07-.26,5.81,1.38,2.45,2.32,3.68,6.17,4.49,9.27,1.67,6.43,2.48,13.26,2.45,20.54-2.2,3.54-6.75,6.95-12.43,9.26Zm72.39,161.3c-9.86,6.79-43.44,7.01-52.69,4.3,2.61-9.26,20.46-15.25,27.03-16.71l4.91-1.08-.85-4.95c-.95-5.59-1.99-13.73-3-22.86,.52,0,1.03,.02,1.55,.02,6.58,0,13.11-.75,19.53-2.2,1.54,18.76,3.46,34.49,4.87,42,.07,.38-.82,1.1-1.35,1.47Zm-30.32-102.01c6.95,.48,15.15,.81,24.29,.99-.05,16.11,.74,33.45,1.88,49.3-6.99,1.69-14.14,2.43-21.33,2.21-2.09-19.95-3.98-42.18-4.84-52.5Zm226.31,106.17c-8.59,2.62-41.45,3.03-52.32-4.22-1.28-.85-1.88-1.58-1.77-2.16,1.33-7.51,3.14-22.84,4.64-41.3,6.49,1.49,13.1,2.25,19.75,2.25,.42,0,.84-.01,1.26-.02-.93,8.53-1.86,16.08-2.72,21.41l-.79,4.87,4.8,1.11c6.65,1.53,24.79,7.95,27.15,18.06Zm-48.83-55.94c1.22-16.95,2.1-35.8,2.11-53.35,2.85-.16,5.68-.32,8.47-.49,5.33-.32,10.56-.64,15.71-.98-.94,11.9-2.92,36.11-5.05,57.1-7.16,.19-14.29-.58-21.25-2.28Zm152.87-80.28c-5.6,3.94-52.98,10.62-143.78,15.98-71.37,4.21-139.96,5.73-177.29,4.04,.94-1.5,1.77-3.08,2.45-4.75,3.38-8.27,3.55-18.23,.49-28.05-.98-3.13-2.22-6.09-3.48-8.98,.76-2.35,2.43-3.69,4.6-4.94,2.35-.74,4.86-1.83,7.46-3.44,.04,0,.07,0,.11,0,2.08,.09,4.07-.21,6.02-.36,2.9,2.07,6.72,4.01,11.4,4.73,6.95,1.08,14.08-.72,21.26-5.34,3.99,3.53,11.11,8.48,19.94,8.71,6.67,.16,12.96-2.28,18.78-7.31,4.59,3.43,12.75,8.19,22.58,8.19,.47,0,.95-.01,1.43-.03,8.3-.4,15.96-4.12,22.83-11.09,4.94,3.61,13.7,8.59,24.05,8.12,8.09-.38,15.5-3.95,22.07-10.63,5.33,1.63,11.03-.46,15.19-4.23,3.85,3.47,10.75,8.31,19.64,8.7,.39,.02,.77,.03,1.16,.03,7.18,0,14.1-2.92,20.63-8.69,4.77,2.96,13.38,7.11,23.08,6.13,6.93-.7,13.15-3.81,18.54-9.26,4.33,2.27,11.55,4.98,19.62,3.54,6.01-1.07,11.35-4.2,15.97-9.28,4.38,.87,7.63,3.78,9.62,7.91,.28,.59,.59,1.15,.93,1.67,1.96,13.09,2.82,32.29-5.28,38.65Zm-326.91-35.88c-.07-.31-.14-.62-.2-.93-2.33-12.32,4.77-26.08,16.16-31.32,.53-.25,1.8-.11,4.84,1.92,1.09,.73,2.18,1.63,3.33,2.59,1.7,1.42,3.63,3.02,5.9,4.29,9.79,5.44,21.36,2.37,29.22-.41,.92-.33,1.85-.67,2.79-1,6.86-2.5,13.34-4.85,19.47-3.82,2.06,.35,4.21,1.12,6.48,1.93,3.23,1.15,6.89,2.46,10.91,2.68,5.41,.3,10.4-1.42,14.8-2.93,1.04-.36,2.07-.71,3.11-1.04,5.26-1.67,9.16-1.72,11.61-.17,1.25,.79,2.51,2.21,3.84,3.71,2.75,3.1,6.17,6.96,11.75,7.44,5.74,.5,9.85-2.91,13.14-5.64,1.55-1.29,3.01-2.51,4.37-3.13,2.39-1.09,5.76-.61,8.38,1.2,3.34,2.31,5.18,6.09,6.14,8.87,.26,.75,.5,1.53,.75,2.31,.73,2.35,1.56,4.99,2.93,7.4-4.48,4.33-9.3,6.65-14.38,6.9-11.01,.56-20.37-8.52-20.45-8.6l-4.13-4.12-3.68,4.53c-5.75,7.08-12.01,10.83-18.62,11.17-10.97,.57-20.01-8.35-20.09-8.42l-3.89-3.96-3.75,4.09c-4.62,5.05-9.42,7.55-14.3,7.44-8.68-.2-15.57-8.33-15.63-8.4l-3.26-3.97-4.05,3.16c-6.04,4.71-11.72,6.72-16.88,5.97-6.88-1.01-11.01-6.72-11.03-6.75l-3.58-5.22-4.48,4.48c-7.51,7.51-14.38,8.02-17.51,7.76Zm351.41-26.4c.43,2.39-.07,4.23-1.64,5.96-7.66,8.46-24.36-4.87-24.52-5l-4.63-3.83-3.19,5.09c-3.88,6.19-8.43,9.8-13.53,10.74-8.12,1.48-15.58-4.07-15.64-4.11l-4.11-3.18-3.23,4.07c-4.21,5.3-9.05,8.28-14.39,8.84-10.03,1.05-19.16-6.41-19.24-6.48l-3.79-3.19-3.41,3.59c-5.61,5.91-11.29,8.79-16.9,8.57-6.69-.26-12.01-4.82-14.22-7.04,.71-1.68,1.31-3.36,1.89-5.02,.75-2.13,1.46-4.15,2.36-5.96,1.24-2.48,7.07-8.22,14.91-4.73,.68,.3,1.35,.61,2.02,.93,2.93,1.36,5.96,2.76,9.45,3.5,9.3,1.97,17.75-2.3,25.19-6.06,1.28-.65,2.56-1.29,3.83-1.9,10.36-4.94,21.89-7.44,33.37-7.19,2.3,.05,4.59,.2,7.02,.36,5.51,.37,11.2,.74,17.01-.16,4.49-.7,9.19-2.19,13.11-4.57,4.01,3.23,11.14,10.38,12.29,16.77Zm-371.61-49.71c-.03-.1-.05-.2-.09-.3,47.4,11.57,82.04,11.97,124.12,1.48-.05,.11-.09,.22-.14,.32,0,0-.59,1.36-1.52,3.07-.9,1.74-2.27,3.72-3.21,5.6,2.1-.17,4.57-1.73,6.11-3.49,.79-.86,1.38-1.72,1.76-2.37,.39-.64,.57-1.07,.57-1.07,.35-.74,.64-1.5,.9-2.27,32.15,8.85,79.2,8.21,109.19-1.4,.17,.49,.34,.98,.54,1.46,0,0,.58,1.42,1.81,2.92,1.2,1.51,3.11,2.98,4.93,3.3-.4-1.8-1.26-3.65-1.88-5.18-.62-1.51-1.1-2.67-1.1-2.67-.09-.21-.16-.43-.24-.65,24.74,2.89,56.1,3.6,77.82,3.88,6.91,.09,14.46,.06,21.96-.82,2.05,1.68,3.63,3.98,6.16,5.03,.24,.1,.49,.17,.73,.24,1.66,1.72,3.48,2.96,4.99,3.99,3.62,2.46,4.97,3.38,4.51,7.73-.45,4.15-7.05,7.32-13.34,8.29-4.66,.72-9.54,.4-14.7,.06-2.44-.16-4.96-.33-7.49-.38-13.11-.26-26.29,2.57-38.12,8.22-1.34,.64-2.68,1.32-4.04,2-6.47,3.27-12.59,6.35-18.27,5.15-2.33-.49-4.7-1.59-7.21-2.75-.72-.33-1.44-.67-2.17-.99-13.29-5.91-24.93,2.27-28.62,9.66-1.19,2.4-2.04,4.82-2.87,7.16-.99,2.81-1.92,5.46-3.31,7.63-1.85,2.89-5.31,4.71-7.13,3.75-1.72-.91-2.71-4.06-3.66-7.11-.28-.88-.55-1.76-.84-2.6-2.11-6.1-5.6-10.97-10.1-14.09-5.74-3.97-12.93-4.78-18.75-2.11-2.63,1.21-4.81,3.01-6.72,4.61-2.09,1.74-4.08,3.37-5.49,3.25-1.4-.12-3.04-1.98-4.79-3.94-1.68-1.89-3.58-4.03-6.08-5.62-5.2-3.3-12.07-3.63-20.43-.98-1.12,.35-2.23,.74-3.35,1.12-3.83,1.32-7.43,2.57-10.8,2.38-2.49-.14-5.14-1.08-7.95-2.08-2.6-.93-5.29-1.89-8.27-2.39-8.87-1.49-17.34,1.59-24.82,4.31-.91,.33-1.81,.66-2.7,.98-9.42,3.34-15.96,3.7-20.58,1.13-1.41-.78-2.8-1.94-4.28-3.17-1.31-1.09-2.67-2.22-4.22-3.26-2.35-1.57-8.58-5.73-15.08-2.73-15.84,7.29-25.34,25.71-22.1,42.84,1.07,5.65,3.31,10.73,5.47,15.65,1.45,3.29,2.81,6.39,3.8,9.57,2.34,7.49,2.27,14.92-.18,20.92-2.63,6.43-8.22,11.16-14.25,12.05-6.07,.89-12.48-2.64-14.3-7.88-1.65-4.76,.02-10.74,1.64-16.52l.29-1.02c6.33-22.8,7.23-42.3,2.74-59.6-1.15-4.46-3.04-10.1-7.43-14.27-4.55-4.31-12.42-6.6-18.68-2.64-4.29,2.72-6.78,7.58-7.42,14.46-.09,.99-.15,1.99-.21,3-.16,2.7-.31,5.25-1.17,7.17-1.05,2.33-3.56,4.12-6.1,4.35-2.56,.22-5.33-1.1-6.77-3.21-1.51-2.22-2.01-5.52-2.53-9-.78-5.17-1.66-11.03-6.19-15.47-7.41-7.28-18.88-4.93-24.4-3.81l-25.14,5.13c-7.22,1.47-13.14,2.45-18.25,.62-2.55-.92-4.87-3.09-5.92-5.53-.65-1.52-.72-2.9-.19-4.1,1.09-2.49,4.41-4.21,7.92-6.04l1.29-.67c7.9-4.17,10.82-8.95,11.69-12.89,1.42,.12,2.83,.23,4.19,.34,1.91,.15,3.78,.29,5.54,.46,9.14,.91,18.45,1.5,27.66,1.73l3.98,.11c5.33,.15,10.94,.31,16.65,.31,18.71,0,38.4-1.72,52.2-10.96,.17,.63,.33,1.26,.54,1.88,0,0,.52,1.69,1.64,3.63,1.1,1.95,2.87,4.08,4.73,5.06m98.66-18.75c5.68-.73,10.07-1.64,10.07-1.64,3.96-.79,7.89-1.71,11.81-2.68-.02,1.34-.06,2.62-.09,3.74-41.87,10.63-75.96,10.09-123.76-1.94-.04-1.19-.08-2.43-.12-3.7,1.48,.61,2.99,1.16,4.53,1.6,0,0,2.34,.73,5.42,1.04,3.08,.36,6.87,.13,9.42-.72-2.64-.51-6.19-.97-9.05-1.64-2.86-.62-5.03-1.3-5.03-1.3-1.84-.52-3.63-1.19-5.37-1.97-.1-4.24-.13-8.45-.04-11.51,.47-.13,.93-.24,1.41-.31,7.01-1.08,14.65,4.14,20.79,8.33,7.29,4.98,15.09,9.41,23.41,9.41,1.87,0,3.76-.22,5.68-.71,6.38-1.63,11.11-5.91,15.28-9.68,2.64-2.39,5.13-4.64,7.82-6.13,5.85-3.24,13.51-2.93,19.08,.77,6.04,4.02,14.32,8.69,24.74,9.06,1.96,.07,3.94-.02,5.91-.25,0,1.02,0,2.06,0,3.1-4.11,1.04-8.23,2-12.38,2.83,0,0-4.34,.9-9.91,1.96-5.57,1.09-12.37,2.23-17.23,3.35,4.97,.25,11.93-.23,17.6-.99Zm44.48-4.83c-3.89-.49-6.88-1.14-6.88-1.14-2.54-.5-5.04-1.18-7.49-2,0-1.39,0-2.78-.02-4.1,4.04-1.34,7.87-3.29,11.25-5.79,.6-.44,1.18-.88,1.76-1.31,5.92-4.44,9.83-7.37,16.39-6.75,5.48,.52,9.31,4.02,13.74,8.07,4.32,3.94,9.21,8.42,16.19,10.2,10.47,2.67,20.17-2.6,29.09-8.7,4.82-3.29,10.55-7.2,16.19-8.22v12.89c-2.03,.96-4.12,1.78-6.27,2.42,0,0-2.05,.66-4.74,1.32-2.69,.7-6.02,1.28-8.49,1.93,2.45,.72,6.03,.82,8.93,.42,2.9-.36,5.1-1.06,5.1-1.06,1.87-.56,3.69-1.25,5.48-2.03v6.57c-27.79,9.37-74.24,10.1-104.71,1.68,.04-1.38,.08-2.99,.1-4.69,2.29,.74,4.62,1.35,6.99,1.82,0,0,3.14,.68,7.21,.84,4.07,.22,9.03-.29,12.38-1.38-3.51-.27-8.3-.46-12.18-1Zm207.12,2.41c-10.25,3.34-21.93,3.48-33.03,3.34-21.19-.27-51.61-.96-75.7-3.69v-5.93c.59,.29,1.18,.56,1.79,.81,0,0,1.18,.5,2.78,.77,1.6,.29,3.6,.26,4.98-.33-1.28-.78-2.98-1.4-4.34-1.97l-2.4-1c-.97-.39-1.9-.87-2.81-1.38v-11.78c3.11,1.35,6.12,3.63,9.26,6.03,4.87,3.73,10.39,7.95,17.35,9.13,10.5,1.77,19.47-3.87,27.39-8.86,6.38-4.02,12.41-7.82,18.59-7.82,.06,0,.13,0,.19,0,5.57,.07,10.95,3.26,16.65,6.64,1.5,.89,3.04,1.81,4.61,2.67,4.58,2.53,9.14,4.36,13.57,5.49-.77,.08-1.53,.19-2.3,.26,0,0-3.4,.35-7.76,.69-4.36,.37-9.68,.64-13.52,1.12,3.77,.89,9.17,1.31,13.62,1.27,4.45,0,7.92-.36,7.92-.36,3.15-.29,6.29-.72,9.42-1.21-.49,3.28-1.83,4.7-6.25,6.14Zm19.26-19.69c-7.11,4.24-17.89,3.15-28.86-2.91-1.45-.8-2.89-1.66-4.33-2.51-6.33-3.75-13.5-8.01-21.89-8.11-9.41-.15-17.07,4.74-24.53,9.44-6.93,4.37-13.47,8.49-20.02,7.39-4.39-.74-8.43-3.83-12.71-7.11-4.94-3.78-10.54-8.06-17.63-9.16-11.14-1.72-21.08,5.08-28.34,10.05-6.88,4.7-14.13,8.83-20.54,7.19-4.43-1.13-7.79-4.21-11.69-7.77-5.09-4.65-10.86-9.92-19.84-10.78-10.62-1.02-17.27,3.98-23.71,8.81-.56,.42-1.13,.85-1.71,1.28-5.3,3.93-12.11,6.03-18.68,5.8-6.16-.22-11.92-2.41-19.29-7.31-8.76-5.83-20.82-6.31-30.02-1.21-3.75,2.08-6.81,4.85-9.78,7.53-3.58,3.24-6.97,6.31-10.83,7.29-6.41,1.64-13.66-2.49-20.54-7.19-7.27-4.97-17.21-11.77-28.34-10.05-7.08,1.1-12.69,5.38-17.63,9.16-4.28,3.27-8.32,6.37-12.71,7.11-6.54,1.11-13.09-3.02-20.02-7.39-7.46-4.7-15.2-9.61-24.53-9.44-8.39,.1-15.56,4.36-21.89,8.11-1.45,.86-2.89,1.71-4.33,2.51-10.96,6.07-21.75,7.16-28.86,2.91-6.48-3.87-10.15-12.53-8.91-21.06,1.5-10.35,5.49-20.9,24.12-28.07,13.91-.07,33.42-.19,57.05-.39,1.05,1.27,2.1,2.72,3.71,2.91,.89,.1,1.77-.23,2.66-.37,2.53-.41,5.06,.69,7.27,2,2.21,1.31,4.33,2.87,6.81,3.53,2.48,.66,5.51,.13,6.91-2.01,.66-1.01,.92-2.3,1.84-3.09,1.91-1.64,5.1,.04,7.29-1.19,.78-.44,1.32-1.25,1.48-2.13,15.71-.16,32.54-.35,50.21-.58,.09,.05,.18,.09,.26,.14,2.55,1.37,5.26,2.93,8.14,2.6,2.34-.27,4.31-1.73,6.37-2.93,60.21-.82,128.84-2.05,195.59-3.88,2.33,1.5,4.8,2.74,7.53,3.08,2.42,.3,4.95-.13,7.28,.61,2.82,.89,5,3.4,7.91,3.91,5.43,.95,9.87-5.33,15.38-5.2,3,.07,5.88,2.07,8.82,1.44,2.57-.56,4.26-2.92,6.01-4.89,.17-.19,.35-.37,.53-.55,17.15-.57,33.97-1.19,50.27-1.86,7.39,2.38,16.34,5.83,23.78,11.6,7.65,5.93,12.7,13.85,13.84,21.71,1.24,8.53-2.43,17.19-8.91,21.06Z"/>
    <path d="M609.49,566.85c-.27,.36-.7,.83-1.23,1.29-1.07,.94-2.67,1.74-4.27,2.03-1.6,.31-3.39,.09-4.75-.44-.67-.26-1.24-.57-1.62-.83-.38-.26-.61-.43-.61-.43,0,0,.05,.26,.21,.7,.16,.45,.47,1.08,1.03,1.76,.56,.68,1.39,1.36,2.48,1.84,1.09,.47,2.46,.72,3.88,.45,1.41-.27,2.58-.99,3.4-1.81,.83-.82,1.34-1.74,1.61-2.53,.28-.8,.34-1.47,.34-1.92,0-.45-.05-.7-.05-.7,0,0-.16,.21-.43,.59Z"/>
    <path d="M470.7,571.69c-1.11-.18-2.53-.06-3.92,.44-1.38,.47-2.71,1.19-3.97,1.77-1.24,.58-2.38,.9-3.59,1.05-1.19,.13-2.34,.08-3.32-.09-.99-.16-1.81-.44-2.38-.67-.57-.23-.89-.39-.89-.39,0,0,.18,.3,.6,.78,.41,.48,1.09,1.14,2.09,1.73,.99,.6,2.32,1.12,3.89,1.28,1.54,.18,3.41-.12,4.98-.88,1.57-.74,2.75-1.61,3.81-2.23,1.03-.63,1.98-1.03,2.84-1.22,.85-.2,1.55-.17,2.03-.07,.48,.1,.75,.22,.75,.22,0,0-.13-.27-.56-.67-.42-.39-1.22-.87-2.34-1.04Z"/>
    <path d="M320.76,569.76c-1.72-.74-3.61-.41-4.67,.25-.54,.32-.9,.68-1.1,.95-.21,.27-.29,.45-.29,.45,0,0,.69-.04,1.61,.14,.93,.17,2.07,.58,3.29,1.1,1.24,.52,2.48,1.06,3.46,1.42,.97,.37,1.64,.53,1.64,.53,0,0-.19-.77-.73-1.79-.54-1-1.51-2.33-3.21-3.05Z"/>
    <path d="M237.88,570.59c-2.11,.51-3.89,1.54-5.09,2.43-1.21,.89-1.87,1.64-1.87,1.64,0,0,.93-.02,2.37-.16,1.43-.15,3.36-.4,5.39-.89,2.03-.49,3.81-1.14,5.09-1.66,1.28-.52,2.07-.93,2.07-.93,0,0-.91-.36-2.36-.61-1.45-.24-3.47-.35-5.59,.17Z"/>
    <path d="M257.9,570.1c-.6-.54-1.5-1.09-2.53-1.09-1.03,0-1.95,.54-2.55,1.09-.61,.54-.94,1.08-.94,1.08,0,0,.44,.24,1.09,.47,.65,.23,1.51,.48,2.43,.48,.92,0,1.75-.24,2.38-.48,.63-.24,1.04-.48,1.04-.48,0,0-.31-.53-.91-1.08Z"/>
    <path d="M492.62,575.77c-.71-1.07-2.22-2.26-4.12-2.61-1.9-.35-3.59,.13-4.73,.61-1.15,.49-1.85,1-1.85,1,0,0,.74,.27,1.88,.56,1.14,.29,2.65,.61,4.16,.9,1.51,.29,2.84,.55,3.83,.86,.99,.3,1.64,.59,1.64,.59,0,0-.02-.2-.13-.54-.11-.34-.31-.83-.68-1.36Z"/>
    <path d="M342.87,670.32c-.54,.23-1.02,.39-1.36,.49-.34,.1-.54,.15-.54,.15,0,0,.17,.14,.53,.34,.36,.2,.91,.43,1.64,.56,1.43,.28,3.78-.03,5.54-1.79,1.75-1.78,2.04-4.17,1.73-5.62-.14-.75-.38-1.31-.59-1.67-.2-.36-.35-.54-.35-.54l-.13,.57c-.08,.36-.24,.86-.47,1.43-.46,1.14-1.28,2.53-2.43,3.65-1.14,1.14-2.47,1.96-3.56,2.42Z"/>
    <path d="M241.3,604.6l-.4,.42c-.25,.25-.64,.57-1.09,.84-.92,.57-2.13,.88-3.12,.96-.99,.11-2.24,0-3.26-.43-.5-.2-.94-.46-1.23-.68-.3-.22-.47-.37-.47-.37,0,0-.02,.2,.03,.57,.04,.37,.18,.91,.51,1.52,.33,.61,.89,1.25,1.7,1.76,.8,.5,1.88,.84,3.05,.72,1.16-.12,2.14-.65,2.82-1.28,.69-.63,1.1-1.36,1.31-1.99,.21-.63,.25-1.17,.23-1.52-.02-.36-.07-.54-.07-.54Z"/>
    <path d="M315.52,616.48s-.48,.31-1.14,.69c-.63,.34-1.46,.8-2.35,1.28-.84,.48-1.6,.99-2.24,1.37-.66,.39-1.1,.64-1.1,.64,0,0,.11,.12,.32,.3,.22,.19,.55,.41,1.01,.6,.89,.38,2.33,.5,3.6-.23,1.27-.73,1.9-2.06,2.01-3.03,.07-.49,.04-.9,0-1.19-.05-.28-.1-.44-.1-.44Z"/>
    <path d="M393.53,614.47c.55,1.01,1.96,2.31,3.97,2.33,2,0,3.4-1.21,3.96-2.17,.3-.49,.44-.92,.5-1.23,.06-.3,.06-.47,.06-.47,0,0-.72,.38-1.65,.58-.94,.22-1.99,.19-2.86,.17-.87,0-1.93-.03-2.87-.31-.93-.25-1.63-.69-1.63-.69,0,0,0,.18,.05,.49,.05,.32,.18,.78,.47,1.29Z"/>
    <path d="M430.63,616.69c.44,1.02,1.68,2.39,3.61,2.58,1.92,.17,3.37-.89,3.98-1.77,.32-.45,.49-.86,.57-1.14,.08-.29,.1-.45,.1-.45,0,0-.74,.29-1.65,.38-.92,.11-1.91-.04-2.71-.13-.8-.07-1.81-.15-2.7-.47-.88-.3-1.54-.77-1.54-.77,0,0-.02,.17,0,.48,.02,.31,.1,.76,.34,1.29Z"/>
    <path d="M518.56,616.82c.74,1.04,2.47,2.01,4.43,1.62,1.84-.39,2.91-1.53,3.52-2.3,.61-.8,.86-1.38,.86-1.38,0,0-.76-.01-1.78,.12-1.03,.14-2.25,.33-3.22,.51-.86,.17-1.88,.38-2.8,.24-.45-.07-.87-.23-1.15-.4-.28-.17-.45-.31-.45-.31,.03-.03-.18,.82,.59,1.9Z"/>
    <path d="M582.31,606.77c-.88-.07-1.8,.11-2.67,.13-.85,.04-1.58-.03-1.58-.03,0,0,.04,.14,.15,.39,.1,.25,.3,.59,.61,.96,.61,.75,1.82,1.56,3.3,1.65,1.48,.1,2.75-.54,3.43-1.17,.35-.32,.57-.62,.7-.84,.13-.22,.19-.35,.19-.35,0,0-.72-.06-1.54-.23-.85-.16-1.72-.46-2.6-.52Z"/>
    <path d="M667.55,598.36c-1.2,.72-2.89,1.45-4.75,1.79-1.86,.35-3.65,.3-4.98,.1-.66-.1-1.21-.22-1.6-.32l-.6-.16s.11,.22,.36,.59c.25,.36,.67,.86,1.31,1.37,1.23,1.01,3.54,1.99,6.15,1.49,2.61-.5,4.42-2.3,5.19-3.72,.41-.72,.61-1.35,.71-1.79,.1-.44,.12-.69,.12-.69l-.51,.41c-.32,.26-.81,.6-1.4,.96Z"/>
    <path d="M533.8,661.49c-38.65,2.2-73.97,3.66-99.6,4.98-25.64,1.28-41.58,2.35-41.58,2.35,0,0,16.21,.09,42.13-.02,25.91-.16,61.54-.46,100.31-2.69,38.79-2.24,73.2-6.46,97.93-9.43,24.72-3.11,39.83-5.01,39.83-5.01,0,0-15.46,.82-40.57,2.73-25.11,1.84-59.82,4.9-98.46,7.09Z"/>
    <path d="M277.2,666.28c-7.94-1.21-15.17-2.44-20.45-3.44-5.29-1.01-8.59-1.65-8.59-1.65,0,0,.79,.33,2.2,.92,1.42,.59,3.49,1.38,6.07,2.26,2.58,.9,5.68,1.82,9.15,2.73,3.47,.87,7.32,1.68,11.36,2.3,8.1,1.22,15.43,1.39,20.67,1.23,2.62-.08,4.73-.22,6.18-.36,1.45-.14,2.25-.21,2.25-.21,0,0-3.24-.38-8.49-.99-5.23-.62-12.41-1.58-20.34-2.78Z"/>
    <path d="M246.08,638.79c-3.01,0-3.02,4.68,0,4.68s3.02-4.68,0-4.68Z"/>
  </g>
  <path d="M697.8,539.01c11.55-4.49,21.1-17.2,28.28-26.86,7.87-10.6,14.33-22.15,20.26-33.92,13.16-26.14,23.71-52.96,30.43-81.51,3.93-16.69,6.65-33.66,8.07-50.75" style="fill: none; stroke: #000; stroke-linecap: round; stroke-miterlimit: 10; stroke-width: 16px;"/>
  <path d="M205.77,557.38c-47.44-50.74-74.85-104.75-83.35-173.79" style="fill: none; stroke: #000; stroke-linecap: round; stroke-miterlimit: 10; stroke-width: 16px;"/>
  <g>
    <path d="M112.21,267.33c-.85,.94-1.68,1.88-2.51,2.81-.6,5.07-3.71,9.78-9.34,11.17-7.7,9.81-13.49,18.2-21.84,25.71-9.84,8.86-32.16,14.44-45.66,.42-.53,1.81-.79,.7-1.62,.27-1.06-.06-.45,1.22,.26,1.62-2.97,.95-3.76-4.28-5.93-5.71,2.18-4.62,6.84-9.67,11.83-15.21-2.94-.15-5.81-.52-8.59-1.09-4.63,5.2-8.54,10.25-9.13,12.92-2.02,9.2,13,16.76,22.77,20.99,1.42,.62,5.16,1.93,7.03,2.19,26.66,3.67,42.35-20.79,57.23-40.02,3-2.47,5.91-5.27,8.77-8.27-1.9-2.14-3-4.92-3.29-7.8Z" style="fill-rule: evenodd; stroke: #000; stroke-miterlimit: 10; stroke-width: 2px;"/>
    <path d="M382.27,15.92c.02-.6-.34-1-1.19-1.15-.33,.5-.84,.64-1.63,.27-36.18,27.46-73.67,52.42-107.87,83.64-2.67-.21-3.68,2.72-6.24,2.69-17.15,17.55-36.94,31.43-54.94,50-5.38,1.85-7.53,4.06-10.54,9.06-7.32,4-16.48,11.15-25.09,16.1-8.96,5.04-15.59,15.08-24.11,17.94-3.08-1.92-6.37-3.72-8.97-5.89-3.48,3.84-9.83,2.19-11.46,9.55,.53,2.46,1.44,4.73,2.47,6.94-6.98,6.89-15.54,10.76-22.01,18.6-.73-.1-1.36-.04-1.92,.13,.28,1.99,.46,4,.56,6.04,0,.21,0,.43,0,.65,.12,0,.24-.02,.35-.02h.08c8.81-6.62,17.36-13.75,26.54-19.65,4.16,4.68,7.54,9.77,13.54,13.49-4.21,5.98-9.64,12.38-15.51,18.91,1.48,1.54,2.51,3.43,3.1,5.48,5.92-7.39,11.8-14.34,17.87-19.61,6.32,3.33,14.8,1.41,19.29-2.47,1.01-5.82-5.21-7.86-5.15-13.18,13.61-2.61,21.82,9.79,33.1,12.64,6.98,1.77,14.9-.25,19.29-2.47,7.43-3.76,16.9-10.24,20.86-17.41,42.46-31.57,92.97-80.66,125.38-129.89,7.99-12.13,10.26-23.51,13.73-36.61,3.34-12.6,3.99-16.89,.48-23.77ZM136.29,198.48c1.96-1.2,1.38-.85,3.21-2.85,17.1,5.53,22.2,17.37,28.06,28.81-16.45,2.48-25.64-15.33-31.26-25.95ZM379.16,23.43c-1.69,28.9-12.09,49.5-29.79,73.27-4.36,5.86-11.17,11.52-16.42,18.03-5.16,6.39-10.26,12.58-15.72,18.25-22.41,23.26-41.74,40.23-67.77,61.43-2.87,2.34-5.36,5.59-8.7,8.09-5.26,3.96-20.83,17.39-28.56,17.34-2.98-.02-5.04-2.61-8.7-4.26-11.98-5.4-26.77-8.71-38.59-7.41-3.99-2.42-4.55-6.63-8.8-8.92,24.31-19.91,50.64-36.02,73.93-56.42,3.35-2.94,5.83-7.07,9.35-10.2,8.86-7.88,17.46-14.27,26.35-22.65,6.32-5.96,13.02-10.47,20.43-16.01,6.62-4.95,12.98-9.71,19.76-13.9,5.45-6.07,10.51-12.86,18.36-14.34,1.32-3.09,4.16-3.28,5.22-6.86,17.54-8.8,34.19-25.29,48.94-35.68,.38-.75,.83-.17,.7,.22Z" style="fill-rule: evenodd; stroke: #000; stroke-miterlimit: 10; stroke-width: 2px;"/>
    <path d="M365.99,53.28c.7,.22,1.41,.44,2.11,.66-1.85,18.99-19.67,37.5-32.1,50.96-8.15,8.81-14.83,18.25-24.02,22.6-1.12,3.67-6.06,9.22-10.76,9.76-3.71,6.14-10.21,11.29-16.69,16.4-6.72,5.31-13.72,11.45-20.2,15.31-16.49,15.03-30.2,28.43-49.59,37.78-3.09-2.22-1.65-1.4-5.63-1.76-1.97-8.7-4.89-20.06-2.96-32.56,5.25,6.07,.3,17.49,5.81,23.42-1.28,3.42,1.06,4.93,.62,7.9,18.44-9.7,33.1-26.6,50.03-39.18-.66-16.09-1.7-28.44-2.27-44.69,1.25,.22,1.45,1.77,2.11,.66,3.05,12.53,2.11,28.58,2.67,40.95,4.06-2.36,7.37-6.13,11.24-8.84,.93-2.05-2.18-1.99-1.93-3.69-.08-5.19,.8-7.36-1.15-11.17,4.08-7.9-4.6-19.37,4.64-24.79-.16,13.54-.82,25.83,2.57,36.3,29.99-25.16,65.33-56.16,85.5-96.03Z" style="fill-rule: evenodd; stroke: #000; stroke-miterlimit: 10; stroke-width: 2px;"/>
    <path d="M317.4,82.89c-.18,4.85,2,9.05-1.57,14.94-4.65-2.86-2.99-11.49-2.17-15.33,1.61,.82,1.93-.81,3.73,.39Z" style="fill-rule: evenodd; stroke: #000; stroke-miterlimit: 10; stroke-width: 2px;"/>
    <path d="M299.53,98.15c-2.67,1.4,1.38,3.95-1.8,3.3,1.79,11.79,.32,17.13,1.25,28.17-1.63,.27-2.08,2.76-4.4,1.71,.94-11.91-1.96-24.19-.68-34.93,1.82-.96,4.16,.81,5.63,1.75Z" style="fill-rule: evenodd; stroke: #000; stroke-miterlimit: 10; stroke-width: 2px;"/>
    <path d="M214.72,169.69c.94,.29,1.87,.58,2.81,.88-.93,8.42,4.06,15.35,1.86,23.73-5.9-5.93-6.31-16.52-4.68-24.61Z" style="fill-rule: evenodd; stroke: #000; stroke-miterlimit: 10; stroke-width: 2px;"/>
    <path d="M196.31,181.7c.49,.63,1,1.24,1.41,.44,2.35,7.59,2.22,16.48,4.89,23.9-6.49-.71-8.26-19.11-6.3-24.35Z" style="fill-rule: evenodd; stroke: #000; stroke-miterlimit: 10; stroke-width: 2px;"/>
    <path d="M186.29,181.67c1.79,.23,1.13,1.76,3.3,1.8-.1,7.5,2.81,13.43,2.74,20.91-5.29,.29-3.73-8.55-5.15-13.18-.75-2.45-2.96-5.18-.88-9.54Z" style="fill-rule: evenodd; stroke: #000; stroke-miterlimit: 10; stroke-width: 2px;"/>
    <path d="M62.02,287.3c2.66,1.32,3.86-.11,5.19-1.33-1.72,.52-3.45,.97-5.19,1.33Z" style="fill-rule: evenodd; stroke: #000; stroke-miterlimit: 10; stroke-width: 2px;"/>
    <path d="M52.59,288.43c1.19,2.97,3.59,5.86,6.16,7.79,1.37-2.63,1.21-5.7-.18-8.33-1.99,.29-3.99,.47-5.98,.54Z" style="fill-rule: evenodd; stroke: #000; stroke-miterlimit: 10; stroke-width: 2px;"/>
    <path d="M49.3,288.45c-.89-.02-1.78-.06-2.66-.12-.36,.02-.71,.07-1.07,.09,.52,6.52,5.14,12.6,7.08,17.48,1.83,.12,2.39-2.17,3.42-3.56-3.8-3.27-3.45-10.51-6.78-13.88Z" style="fill-rule: evenodd; stroke: #000; stroke-miterlimit: 10; stroke-width: 2px;"/>
    <path d="M39.54,291c8.38,4.43,7.19,13.88,10.43,21-9.53,1.19-6.15-13.82-12.01-18.4,.3-1.29,1.32-1.22,1.58-2.6Z" style="fill-rule: evenodd; stroke: #000; stroke-miterlimit: 10; stroke-width: 2px;"/>
  </g>
  <path d="M4.98,238.02c1.97-2.49,4.72-3.94,7.91-2.82,5.43,1.92,9.63,.19,13.48-3.62,3.34-3.31,7.23-5.4,12.2-4.89,1.76,.18,3.55-.12,4.35-2.2,1.66-4.29,5.23-6.67,9.2-8.09,4.39-1.57,9.14-3.76,13.64-.49,2.99,2.17,4.47,.88,6.05-1.55,3.51-5.37,12.1-8.18,18.2-6.19,6.43,2.1,10.95,6.08,13.07,12.61,1.04,3.22,3,4.6,6.52,4.01,4.24-.72,8.56-1,12.83-1.58,4.46-.6,9.3,1.6,11.57,5.46,2.03,3.45,3.5,7.13,4.74,10.95,2.55,7.79,4.04,15.86,6.63,23.64,2.3,6.92,4.33,14.07,2.64,21.51-2.32,10.2-4.49,20.44-7.61,30.45-1.73,5.58-2.88,11.37-3.88,17.14-1.13,6.48,2.4,11.93,8.57,14.02,7.6,2.58,9.98,14.23,3.65,19.32-8.61,6.92-17.89,12.91-27.52,18.3-5.05,2.83-10.55,4.9-16.25,5.47-5.45,.54-11.11,.43-16.51-.44-5.79-.94-9.83-5.09-11.95-10.48-1.52-3.87,1.82-6.53,3.69-9.45,.3-.46,.73-.85,.98-1.34,.38-.75,.52-1.66-.52-1.9-2.49-.58-2.43-2.57-2.6-4.42-.32-3.3-1.69-6.16-3.56-8.83-3.84-5.47-9.02-9.49-14.55-12.97-16.38-10.28-26.44-25.75-34.89-42.49-2.15-4.25-4.76-8.05-8.08-11.27-2.44-2.37-4.41-4.95-5.75-7.97-2.43-5.46-4.44-11.1-6.94-16.53-2.19-4.77-3.01-9.7-2.74-15.72,.47-2.24,1.5-5.19,3.43-7.64Zm108.35,14.19c1.87,.7,2.93,1.8,2.01,3.72-2.5,5.21-1.16,10.42-.15,15.61,.4,2.06,1.18,4.04,1.66,6.09,1.07,4.64-1.16,8.87-5.57,10.75-8.33,3.55-13,11.02-12.49,20.17,.1,1.81-.01,3.52-.64,5.22-.37,1-.83,2.05-1.88,2.1-1.36,.06-1.77-1.34-1.93-2.33-.9-5.78-1.05-11.51,2.32-16.7,.96-1.49,1.99-2.93,3.02-4.38,1.3-1.84,.91-3.18-1.27-3.71-2.78-.68-5.1-2.08-7.14-4.03-1.29-1.23-2.38-1.65-3.81,.11-2.51,3.09-5.99,3.95-9.86,3.51-4.09-.47-8.1-1.22-11.77-3.21-2.38-1.29-4.05-.82-5.55,1.56-1.04,1.65-2.51,3.14-4.07,4.32-3.42,2.6-7.06,2.85-10.81,.48-1.86-1.18-3.86-2.15-5.82-3.16-1.42-.74-2.7-.58-3.16,1.13-.87,3.24-3.2,4.58-6.19,5.28-1,.24-2.56,.4-1.42,2.07,4.81,7.04,7.9,15.08,13.31,21.8,6.03,7.48,13.65,12.93,21.48,18.08,9.16,6.04,16.66,13.35,21.41,23.39,2.38,5.03,4.91,6.07,10.22,4.69,7.79-2.03,15.55-4.16,23.33-6.26,5.02-1.35,8.88-4.83,12.21-8.31,1.94-2.03,2.85-6.23,2.08-9.48-3.18-13.41,.84-25.65,5.54-37.81,4.03-10.44,6.21-20.84,2.92-32.09-2.1-7.18-2.85-14.77-4.19-22.17-1.08-5.94-3.24-11.47-6.08-16.77-1.58-2.96-4.01-4.27-7.33-4.09-6.4,.35-12.81,.53-19.11,1.85-.64,.13-1.46,.42-1.93,.15-4.62-2.59-9.31-.62-13.96-.32-1.33,.09-2.54,.56-3.16-1.34-.94-2.89-3.37-3.88-6.08-2.76-2.49,1.03-4.43,4.64-4.06,7.32,.62,4.45,2.73,7.82,6.6,10.22,6.46,4.01,13.12,7.39,20.81,8.2,3.51,.32,7.08-.19,10.51,1.09Zm-35.7,5.54c-.94-1.92-1.42-3.94-1.8-6.03-.71-3.93-1.77-7.72-3.94-11.19-2.54-4.06-2.81-8.96-4.31-13.42-1.12-3.35-3.15-5.47-5.79-7.34-.75-.53-1.59-.77-2.52-.49-3.41,1.04-6.71,2.28-9.44,4.68-1.5,1.31-2.25,3.06-1.14,4.74,2.23,3.36,1.98,7.02,2.33,10.79,.67,7.17,2.42,14.19,5.24,20.89,2.06,4.9,4.17,9.79,5.99,14.78,1.34,3.69,3.8,5.51,7.49,6.6,3.09,.92,5.79,2.62,8.96,.07,2.09-1.69,2.84-3.84,3.58-6.51-1.78-5.67-1.9-11.96-4.65-17.59Zm-19.8,20.85c-.66-4.11-2.12-7.95-4.14-11.51-5.36-9.44-8.05-19.85-11.3-30.06-.62-1.95-.64-4.65-3.35-4.73-3.14-.09-6.43,.07-8.96,2.48-.47,.44-.67,1.3-1.19,1.54-4.61,2.14-4.11,6.19-3.01,9.71,2.84,9.09,4.24,18.58,7.48,27.51,2.82,7.76,8.96,12.33,15.63,14.57,5.39,.5,9.58-4.82,8.83-9.51Zm59.68,98.28c6.7-2.87,13.28-6.03,19.9-9.1,4.68-2.17,8.8-4.84,9.21-10.72,.1-1.46,.31-2.89-1.24-3.83-1.46-.88-2.39,.16-3.59,.72-9.51,4.46-19.08,8.88-29.32,11.34-8.08,1.94-15.76,5.06-23.71,7.35-2.76,.8-3.27,3.15-3.49,5.49-.2,2.11,1,3.53,2.97,4.32,1.34,.54,2.65,1.13,4.16,1.15,8.91-.19,17.08-3.29,25.12-6.73Zm-9.69-94.1c.23-2.76,1.6-5.41,1.87-8,.68-6.31-.59-12.52-4.04-18.04-.39-.62-1.49-.99-2.32-1.11-6.75-.99-13.01-3.43-19.11-6.37-1.13-.54-2.35-1.18-3.43-.35-1.22,.94-.42,2.34-.04,3.39,2.81,7.7,5.17,15.63,8.77,22.94,2.76,5.61,8.49,8.48,14.37,10.46,2.27,.2,3.71-.37,3.93-2.93Zm-77.56-1.72c-4.11-7.96-4.76-16.97-7.72-25.29-1.18-3.32-2.58-6.49-4.13-9.61-1.23-2.46-4.79-3.85-7.04-3.04-2.51,.9-4.44,3.89-3.76,6.71,2.26,9.34,5.01,18.51,10.43,26.63,1.22,1.83,2.09,3.9,3.12,5.85,1.37,2.62,3.34,4.68,5.86,6.18,2.76,1.64,4.07,.91,4.21-2.27,.11-1.81-.15-3.61-.96-5.18Zm62.01-58.4c1.43,.57,3.12,1.26,4.3-.16,1.01-1.22-.19-2.53-.73-3.67-2.6-5.51-11.52-7.91-16.69-4.63-1.62,1.03-1.83,2.42-1.53,4.01,.29,1.54,1.23,2.59,2.9,2.71,1.32,.1,2.65,.12,4.31,.19,2.31,.21,4.93,.54,7.43,1.54Z" style="stroke: #000; stroke-miterlimit: 10; stroke-width: 3px;"/>
  <g>
    <path d="M781.43,226.43c.93,.86,1.86,1.71,2.77,2.56,1.09,4.99,4.64,9.38,10.38,10.21,8.62,9.01,15.19,16.8,24.23,23.47,10.66,7.87,33.41,11.25,45.48-4.01,.7,1.75,.86,.62,1.64,.11,1.05-.16,.56,1.17-.1,1.64,3.05,.65,3.33-4.62,5.35-6.26-2.62-4.38-7.74-8.96-13.25-14,2.91-.43,5.73-1.08,8.44-1.92,5.11,4.73,9.49,9.37,10.34,11.98,2.9,8.96-11.32,17.94-20.63,23.1-1.35,.75-4.95,2.43-6.79,2.87-26.18,6.24-44.17-16.59-60.84-34.28-3.23-2.17-6.4-4.67-9.53-7.38,1.69-2.32,2.51-5.19,2.52-8.08Z" style="fill-rule: evenodd; stroke: #000; stroke-miterlimit: 10; stroke-width: 2px;"/>
    <path d="M491.04,26.01c4.72,12.7,8.09,23.81,17.21,35.11,37.04,45.85,92.06,89.82,137.39,117.12,4.64,6.75,14.69,12.29,22.45,15.31,4.59,1.78,12.67,3.02,19.44,.59,10.95-3.93,17.92-17.06,31.72-15.78,.57,5.29-5.42,7.92-3.85,13.62,4.84,3.43,13.47,4.51,19.44,.59,6.55,4.66,13.08,11.01,19.68,17.79,.39-2.1,1.23-4.09,2.55-5.76-6.48-5.93-12.5-11.77-17.28-17.32,5.62-4.28,8.48-9.68,12.17-14.74,9.71,4.99,18.91,11.25,28.32,16.99h.08c.12-.02,.23-.02,.35-.02-.02-.22-.05-.43-.06-.65-.11-2.03-.11-4.06-.03-6.07-.58-.11-1.21-.12-1.93,.05-7.2-7.18-16.09-10.21-23.71-16.38,.81-2.29,1.49-4.64,1.78-7.14-2.34-7.16-8.5-4.91-12.33-8.39-2.38,2.41-5.48,4.52-8.36,6.73-8.76-2.03-16.33-11.37-25.74-15.52-9.05-4.09-18.86-10.31-26.53-13.59-3.48-4.68-5.83-6.68-11.37-7.99-19.72-16.74-40.76-28.63-59.53-44.44-2.55,.28-3.84-2.54-6.47-2.07-37.06-27.76-76.8-48.97-115.47-72.79-.75,.44-1.27,.36-1.64-.11-.84,.23-1.15,.66-1.07,1.26-2.83,7.19-1.77,11.4,2.78,23.62Zm231.15,163.09c4.72-11.95,8.65-24.22,25.13-31.39,2.02,1.81,1.4,1.53,3.47,2.53-4.56,11.11-11.99,29.74-28.6,28.86ZM492.77,9.28c15.69,8.91,33.85,23.71,52.16,30.76,1.41,3.46,4.25,3.37,5.86,6.32,7.96,.71,13.66,6.98,19.67,12.49,7.16,3.51,13.95,7.63,21.02,11.91,7.91,4.8,15.01,8.64,21.88,13.96,9.66,7.48,18.84,13.01,28.42,19.99,3.81,2.77,6.68,6.65,10.3,9.24,25.16,18.05,52.92,31.53,79.05,48.99-4,2.69-4.15,6.93-7.89,9.73-11.88-.15-26.29,4.58-37.69,11.11-3.48,1.99-5.28,4.77-8.25,5.08-7.68,.8-24.48-11.06-30.1-14.49-3.56-2.16-6.36-5.16-9.44-7.2-27.97-18.58-48.84-33.59-73.41-54.57-5.98-5.12-11.67-10.78-17.42-16.64-5.86-5.97-13.18-10.95-18.09-16.36-19.93-21.94-32.27-41.44-36.76-70.03-.16-.38,.22-1,.68-.29Z" style="fill-rule: evenodd; stroke: #000; stroke-miterlimit: 10; stroke-width: 2px;"/>
    <path d="M602.5,125.28c2.35-10.74,.51-22.92-.96-36.37,9.73,4.49,2.2,16.75,7.03,24.22-1.58,3.98-.49,6.05-.06,11.23,.41,1.66-2.69,1.9-1.57,3.86,4.12,2.32,7.78,5.76,12.05,7.71-.65-12.36-3.14-28.25-1.32-41.02,.76,1.04,.81-.51,2.03-.86,1.01,16.23,1.17,28.62,2.08,44.69,18.07,10.88,34.3,26.28,53.59,34.15-.73-2.92,1.46-4.65-.15-7.93,4.91-6.43-1.12-17.32,3.52-23.87,3.13,12.25,1.33,23.85,.21,32.69-3.93,.74-2.58-.21-5.44,2.29-20.2-7.42-35.15-19.42-53.02-32.79-6.83-3.21-14.39-8.65-21.59-13.28-6.94-4.45-13.91-8.95-18.2-14.7-4.73-.08-10.19-5.12-11.66-8.67-9.57-3.44-17.13-12.18-26.1-20.16-13.68-12.18-33.21-28.88-36.89-47.6,.68-.29,1.36-.57,2.04-.86,23.94,37.73,62.12,65.15,94.41,87.29Z" style="fill-rule: evenodd; stroke: #000; stroke-miterlimit: 10; stroke-width: 2px;"/>
    <path d="M563,62c1.19,3.74,3.68,12.17-.67,15.47-4.12-5.51-2.36-9.91-3.01-14.72,1.68-1.37,2.16,.22,3.68-.75Z" style="fill-rule: evenodd; stroke: #000; stroke-miterlimit: 10; stroke-width: 2px;"/>
    <path d="M584.02,73.92c2.31,10.57,.62,23.07,2.71,34.83-2.2,1.27-2.9-1.17-4.54-1.28-.14-11.07-2.13-16.25-1.49-28.16-3.1,.95,.68-1.98-2.11-3.11,1.37-1.09,3.53-3.07,5.43-2.29Z" style="fill-rule: evenodd; stroke: #000; stroke-miterlimit: 10; stroke-width: 2px;"/>
    <path d="M667.67,164.14c-3-8.13,1.29-15.51-.45-23.8,.91-.38,1.81-.77,2.71-1.15,2.41,7.89,3.03,18.47-2.27,24.94Z" style="fill-rule: evenodd; stroke: #000; stroke-miterlimit: 10; stroke-width: 2px;"/>
    <path d="M685.51,174.2c1.94-7.65,.95-16.49,2.55-24.26,.49,.76,.93,.1,1.36-.58,2.46,5.02,2.48,23.5-3.91,24.84Z" style="fill-rule: evenodd; stroke: #000; stroke-miterlimit: 10; stroke-width: 2px;"/>
    <path d="M699.44,157.93c-.97,4.74,1.44,13.39-3.85,13.61-.8-7.44,1.52-13.62,.7-21.08,2.15-.25,1.35-1.7,3.11-2.11,2.49,4.13,.55,7.06,.05,9.58Z" style="fill-rule: evenodd; stroke: #000; stroke-miterlimit: 10; stroke-width: 2px;"/>
    <path d="M833.32,241.44c-2.51,1.57-3.86,.26-5.3-.82,1.76,.35,3.53,.63,5.3,.82Z" style="fill-rule: evenodd; stroke: #000; stroke-miterlimit: 10; stroke-width: 2px;"/>
    <path d="M842.81,241.66c-.89,3.07-3.01,6.18-5.38,8.35-1.62-2.49-1.76-5.56-.63-8.3,2.01,.1,4.02,.08,6-.04Z" style="fill-rule: evenodd; stroke: #000; stroke-miterlimit: 10; stroke-width: 2px;"/>
    <path d="M846.09,241.35c.89-.11,1.76-.23,2.63-.38,.36-.01,.72,0,1.07-.02,.11,6.54-3.9,13.04-5.35,18.08-1.81,.3-2.59-1.93-3.75-3.21,3.46-3.62,2.42-10.79,5.4-14.47Z" style="fill-rule: evenodd; stroke: #000; stroke-miterlimit: 10; stroke-width: 2px;"/>
    <path d="M857.87,245.38c-5.39,5.13-.57,19.74-10.17,19.48,2.53-7.4,.43-16.69,8.34-21.91,.39,1.35,1.4,1.18,1.82,2.43Z" style="fill-rule: evenodd; stroke: #000; stroke-miterlimit: 10; stroke-width: 2px;"/>
  </g>
  <path d="M889.47,194.14c.85,5.97,.52,10.95-1.2,15.92-1.95,5.64-3.41,11.46-5.3,17.13-1.04,3.13-2.75,5.89-4.95,8.49-2.99,3.52-5.22,7.56-6.95,12-6.79,17.47-15.3,33.85-30.61,45.67-5.17,3.99-9.94,8.5-13.23,14.32-1.61,2.84-2.69,5.81-2.69,9.13,0,1.87,.25,3.84-2.16,4.66-1.01,.34-.78,1.23-.33,1.94,.29,.46,.76,.8,1.1,1.24,2.15,2.72,5.73,5.05,4.59,9.05-1.59,5.57-5.21,10.1-10.88,11.59-5.29,1.39-10.91,2.05-16.39,2.04-5.73-.01-11.4-1.54-16.71-3.87-10.11-4.43-19.93-9.49-29.17-15.54-6.79-4.45-5.56-16.28,1.76-19.58,5.94-2.68,8.92-8.44,7.17-14.79-1.56-5.64-3.26-11.3-5.53-16.69-4.07-9.67-7.23-19.64-10.53-29.57-2.4-7.24-1.07-14.55,.54-21.66,1.82-8,2.53-16.17,4.3-24.17,.87-3.92,1.98-7.72,3.66-11.36,1.88-4.06,6.49-6.72,10.99-6.56,4.31,.16,8.63,.02,12.92,.32,3.56,.25,5.38-1.31,6.11-4.62,1.47-6.7,5.59-11.11,11.78-13.82,5.89-2.57,14.7-.61,18.72,4.39,1.81,2.26,3.4,3.41,6.17,.95,4.16-3.69,9.1-1.97,13.62-.83,4.09,1.03,7.88,3.06,9.94,7.16,1,1.99,2.82,2.12,4.55,1.77,4.89-.99,8.97,.71,12.62,3.68,4.21,3.42,8.56,4.73,13.77,2.3,3.06-1.43,5.95-.25,8.15,2.04,2.16,2.25,3.47,5.09,4.15,7.27Zm-100.26,15.25c7.58-1.55,13.88-5.57,19.92-10.18,3.62-2.76,5.39-6.32,5.57-10.81,.11-2.69-2.17-6.1-4.75-6.89-2.8-.86-5.13,.37-5.78,3.33-.43,1.95-1.68,1.59-3.01,1.64-4.66,.15-9.52-1.35-13.86,1.67-.44,.31-1.29,.11-1.94,.03-6.4-.71-12.8-.26-19.2,.01-3.33,.14-5.61,1.69-6.9,4.78-2.31,5.55-3.93,11.26-4.43,17.28-.62,7.5-.63,15.12-2.03,22.47-2.18,11.52,.99,21.66,6.02,31.65,5.85,11.65,11.04,23.45,9.18,37.1-.45,3.31,.87,7.4,2.99,9.23,3.65,3.14,7.84,6.23,12.96,7.09,7.94,1.33,15.87,2.7,23.82,3.97,5.42,.86,7.84-.42,9.72-5.66,3.76-10.45,10.51-18.46,19.04-25.36,7.29-5.89,14.35-12.05,19.62-20.08,4.74-7.22,7.04-15.52,11.14-22.99,.97-1.77-.6-1.78-1.62-1.92-3.04-.41-5.49-1.52-6.67-4.66-.62-1.65-1.91-1.68-3.25-.81-1.85,1.2-3.75,2.36-5.49,3.71-3.51,2.73-7.15,2.83-10.81,.57-1.67-1.03-3.28-2.37-4.47-3.91-1.72-2.23-3.43-2.54-5.67-1.02-3.46,2.34-7.38,3.47-11.4,4.34-3.8,.82-7.35,.3-10.15-2.53-1.59-1.62-2.64-1.1-3.81,.26-1.84,2.14-4.01,3.76-6.71,4.71-2.12,.74-2.38,2.11-.9,3.82,1.16,1.34,2.32,2.68,3.43,4.06,3.86,4.85,4.26,10.56,3.93,16.4-.06,1-.34,2.43-1.69,2.5-1.05,.06-1.61-.95-2.07-1.9-.79-1.64-1.07-3.32-1.14-5.14-.38-9.15-5.75-16.13-14.39-18.86-4.57-1.44-7.2-5.44-6.58-10.16,.27-2.09,.86-4.14,1.06-6.23,.5-5.27,1.33-10.58-1.67-15.53-1.1-1.82-.16-3.02,1.64-3.9,3.29-1.6,6.9-1.44,10.36-2.11Zm22.79,22.11c1,2.58,1.95,4.65,4.2,6.13,3.4,2.24,5.92,.28,8.91-.94,3.56-1.44,5.84-3.49,6.81-7.3,1.32-5.15,2.95-10.22,4.53-15.29,2.16-6.94,3.21-14.1,3.19-21.3-.01-3.79-.62-7.4,1.28-10.97,.94-1.78,.02-3.44-1.59-4.61-2.95-2.12-6.36-3.04-9.85-3.74-.95-.19-1.76,.13-2.46,.73-2.45,2.12-4.26,4.42-5.05,7.87-1.06,4.59-.85,9.49-2.98,13.78-1.83,3.67-2.51,7.54-2.84,11.52-.17,2.11-.45,4.17-1.2,6.17-2.19,5.87-1.71,12.15-2.93,17.96Zm34.36,9.49c6.43-2.88,12.09-8.02,14.15-16.02,2.36-9.2,2.83-18.78,4.78-28.11,.75-3.61,.86-7.69-3.93-9.37-.54-.19-.82-1.02-1.33-1.42-2.76-2.15-6.04-1.99-9.16-1.6-2.68,.34-2.44,3.03-2.87,5.03-2.25,10.48-3.92,21.1-8.34,31.01-1.66,3.73-2.75,7.7-3.01,11.85-.29,4.75,4.39,9.63,9.71,8.61Zm-33.92,99.25c1.5-.16,2.74-.87,4.03-1.54,1.88-.98,2.94-2.51,2.54-4.59-.44-2.3-1.18-4.6-4.01-5.12-8.14-1.51-16.08-3.87-24.31-5.02-10.43-1.46-20.38-4.92-30.28-8.44-1.25-.44-2.28-1.39-3.65-.37-1.45,1.08-1.11,2.48-.86,3.93,.98,5.82,5.34,8.07,10.21,9.78,6.89,2.41,13.74,4.92,20.69,7.13,8.33,2.64,16.77,4.93,25.65,4.26Zm-20.93-96.32c5.66-2.54,11.08-5.96,13.29-11.81,2.87-7.63,4.45-15.75,6.5-23.69,.28-1.09,.94-2.55-.36-3.37-1.15-.73-2.31,.03-3.38,.68-5.78,3.52-11.78,6.55-18.4,8.19-.81,.2-1.87,.67-2.2,1.33-2.9,5.83-3.56,12.13-2.28,18.35,.53,2.55,2.14,5.06,2.64,7.78,.46,2.53,1.96,2.96,4.19,2.54Zm72.38-6.53c.44,3.15,1.82,3.75,4.41,1.85,2.37-1.74,4.12-3.98,5.24-6.72,.83-2.05,1.5-4.19,2.53-6.13,4.6-8.61,6.45-18,7.8-27.52,.41-2.88-1.81-5.66-4.39-6.31-2.32-.58-5.73,1.14-6.72,3.71-1.24,3.25-2.33,6.54-3.18,9.96-2.14,8.57-1.92,17.6-5.24,25.92-.66,1.64-.74,3.46-.45,5.25Zm-59.68-59.62c1.65-.23,2.97-.39,4.27-.61,1.65-.28,2.48-1.41,2.62-2.97,.15-1.62-.2-2.98-1.91-3.84-5.46-2.76-14.1,.49-16.16,6.23-.43,1.19-1.49,2.61-.37,3.72,1.31,1.29,2.93,.45,4.29-.26,2.39-1.25,4.97-1.82,7.25-2.26Z" style="stroke: #000; stroke-miterlimit: 10; stroke-width: 3px;"/>
</svg>